/* XPM */
static char *_70951863bb443f4846c63dc64f6a780oE6nDVV2mEEWTgoB[] = {
/* columns rows colors chars-per-pixel */
"64 64 254 2 ",
"   c None",
".  c black",
"X  c #1A0909",
"o  c #15100A",
"O  c #0A111B",
"+  c #1B1814",
"@  c #22060E",
"#  c #290E0E",
"$  c #2B130F",
"%  c #291F14",
"&  c #381413",
"*  c #3B1E13",
"=  c #3A291E",
"-  c #3C3110",
";  c #3B1F24",
":  c #222422",
">  c #392928",
",  c #303430",
"<  c #440B1C",
"1  c #4A1B19",
"2  c #531D1C",
"3  c #59221E",
"4  c #5E2B1E",
"5  c #483616",
"6  c #573418",
"7  c #6B3A1D",
"8  c #510D21",
"9  c #580E24",
"0  c #421723",
"q  c #5C1528",
"w  c #610F26",
"e  c #6E1D26",
"r  c #641129",
"t  c #6B102A",
"y  c #6C112B",
"u  c #69132D",
"i  c #6C122C",
"p  c #6F152F",
"a  c #6A1430",
"s  c #6D1B31",
"d  c #741330",
"f  c #751532",
"g  c #7B1737",
"h  c #7D1535",
"j  c #7E1737",
"k  c #4A232A",
"l  c #443222",
"z  c #513929",
"x  c #552A37",
"c  c #403936",
"v  c #6A2723",
"b  c #7C2E29",
"n  c #6B322A",
"m  c #74332C",
"M  c #7D3429",
"N  c #753E2D",
"B  c #6C2B3F",
"V  c #772537",
"C  c #6A3532",
"Z  c #5A4917",
"A  c #77461B",
"S  c #69511D",
"D  c #78611F",
"F  c #57403C",
"G  c #6B472A",
"H  c #774525",
"J  c #775823",
"K  c #624735",
"L  c #704139",
"P  c #76543D",
"I  c #5D3341",
"U  c #28446C",
"Y  c #414140",
"T  c #504D4A",
"R  c #5F574F",
"E  c #575D5B",
"W  c #6A414F",
"Q  c #765A44",
"!  c #744855",
"~  c #6D5F57",
"^  c #7B634E",
"/  c #745B66",
"(  c #5E697C",
")  c #666968",
"_  c #796A66",
"`  c #7B7B6A",
"'  c #6F7277",
"]  c #727879",
"[  c #7E7E7F",
"{  c #851635",
"}  c #861836",
"|  c #811738",
" . c #86183B",
".. c #8C193E",
"X. c #961D3E",
"o. c #84322E",
"O. c #882638",
"+. c #893A33",
"@. c #8E3D37",
"#. c #8F462B",
"$. c #8D5926",
"%. c #915C2E",
"&. c #8D4538",
"*. c #9A4F33",
"=. c #8A5533",
"-. c #A05B33",
";. c #8F6C2C",
":. c #966326",
">. c #9F6B28",
",. c #93702C",
"<. c #946135",
"1. c #9F693F",
"2. c #9F7931",
"3. c #A8772F",
"4. c #B37D2D",
"5. c #A46F31",
"6. c #A56138",
"7. c #AB7C32",
"8. c #8D1A40",
"9. c #8E1B40",
"0. c #8F1C41",
"q. c #971D43",
"w. c #9F1F45",
"e. c #972545",
"r. c #863349",
"t. c #A12045",
"y. c #AD2247",
"u. c #A82149",
"i. c #B3254D",
"p. c #BB264F",
"a. c #BC274F",
"s. c #A83255",
"d. c #B73757",
"f. c #C42953",
"g. c #CD2B56",
"h. c #D52C58",
"j. c #D62D58",
"k. c #D72E59",
"l. c #D72F5A",
"z. c #C13259",
"x. c #DB3860",
"c. c #914541",
"v. c #95484E",
"b. c #97524B",
"n. c #834B5B",
"m. c #A54D48",
"M. c #856A51",
"N. c #9B6E53",
"B. c #BA6D48",
"V. c #A2734C",
"C. c #B67644",
"Z. c #AB6258",
"A. c #A67852",
"S. c #B17D50",
"D. c #914F61",
"F. c #9A7D6E",
"G. c #8E6F70",
"H. c #976977",
"J. c #8B7E7C",
"K. c #A77B63",
"L. c #A76B7D",
"P. c #CC4566",
"I. c #DF4168",
"U. c #DA486C",
"Y. c #E34B6F",
"T. c #E75476",
"R. c #EA5E7D",
"E. c #CA6560",
"W. c #DC627E",
"Q. c #9E802C",
"!. c #B88937",
"~. c #C78F33",
"^. c #C5953B",
"/. c #C39F38",
"(. c #D39F3E",
"). c #B08664",
"_. c #AA8C77",
"`. c #B68573",
"'. c #AC9B7A",
"]. c #B8967A",
"[. c #C08A5D",
"{. c #D48C52",
"}. c #CF9859",
"|. c #DA965F",
" X c #D8A742",
".X c #DDAE47",
"XX c #DFB048",
"oX c #D9A15C",
"OX c #E7B94B",
"+X c #CB8A6E",
"@X c #CA966B",
"#X c #C79D78",
"$X c #DA9E76",
"%X c #D5A47E",
"&X c #E1A26E",
"*X c #EDC14F",
"=X c #F5CA53",
"-X c #FCD356",
";X c #FADD7A",
":X c #8F7A85",
">X c #ED6785",
",X c #F2718C",
"<X c #F67A93",
"1X c #7C8383",
"2X c #7E8CA0",
"3X c #868D8F",
"4X c #908E80",
"5X c #948F8D",
"6X c #998888",
"7X c #9B8C96",
"8X c #969594",
"9X c #979997",
"0X c #909799",
"qX c #A2858D",
"wX c #B58895",
"eX c #B2A895",
"rX c #979EA1",
"tX c #9FA0A0",
"yX c #99A1A4",
"uX c #A3ABAF",
"iX c #B9A4AA",
"pX c #AEB4B5",
"aX c #B2BBBF",
"sX c #DDB38D",
"dX c #D5B296",
"fX c #E3AD89",
"gX c #EAB380",
"hX c #EBB385",
"jX c #F0BD8F",
"kX c #C8A7B1",
"lX c #F5C698",
"zX c #F8CB9E",
"xX c #FEE689",
"cX c #DFC3AC",
"vX c #FAD0A3",
"bX c #FDD4A8",
"nX c #FFD9AD",
"mX c #E2C8B1",
"MX c #EFD7BB",
"NX c #FEF0A2",
"BX c #FFF9BB",
"VX c #BFC9CD",
"CX c #CDC4C4",
"ZX c #D0C2C6",
"AX c #D5C2C8",
"SX c #DAC3CA",
"DX c #DED5CA",
"FX c #C3CDD1",
"GX c #CBD5DA",
"HX c LightGray",
"JX c #E9D6C0",
"KX c #DBE6EB",
"LX c #E8E0E2",
"PX c #ECE1E4",
/* pixels */
"                                                                                                                                ",
"                                                LXZXZXZXZXZXAXSXSXSXSXSXSXSXSXSXSXSXPX                                          ",
"                                                qX< < < < < 9 t i i t i t t t t i t wX                                          ",
"                                        LXZXAXSXH.8 8 9 9 9 w d h { { } } } } } h d L.SXSXSXPX                                  ",
"                                        qX< 9 t t t h 8.0.0.X...i.j.l.l.j.l.l.j.i.8.h i t i wX                                  ",
"                                    PXSXH.9 r d d f | 8.q.t.w.w.z.I.I.I.Y.x.x.Y.z.s.e.} h d L.SXPX                              ",
"                                    wXt h 8...0...0.0...i.l.j.h.T.<X<X<X<X<X<X<X<X<XT.h.i...h t wX                              ",
"                                PXSXL.d | 8.0.0.0...q.t.p.l.x.Y.R.<X<X<X<X<X<X<X<X<XT.Y.z.w...d L.SXPX                          ",
"                                wXt h 8.0.8.0...8...i.l.l.j.T.<X<X<X<X<X<X<X<X<X<X<X<X<XT.l.i...h i wX                          ",
"                            PXSXL.d | 8...0.0...q.X.i.j.x.I.R.<X<X<X<X<X<X<X<X<X<X<X<X<XT.Y.z.w...d L.SXPX                      ",
"                            wXi h 0.0.0.0.0.0.0...8.i.l.T.<X<X<X<X<X<X<X<X<X<X<X<X<X<X<X<X<XT.l.i...h i wX                      ",
"                        PXSXL.d j 8.....0.....0.8.8.i.j.Y.>X,X<X<X<X<X<X<X<X<X<X,X>X>XW.W.W.P.p.w. .f i H.AXLX                  ",
"                        wXi h 8.8.8.0.0.0.8.8.X.8.8.i.l.j.l.T.<X<X<X<X<X<X<X<X<XT.h.i...X.8.h u i t t i 9 < qX                  ",
"                        wXw f 8.8.8...0...8.q.t.t.t.p.l.l.j.Y.>X,X<X,X>X>X>X>XW.P.p.w. . . .r.v.c.&.b e q < qX                  ",
"                        qX< u 8.8.8...0.q...i.j.l.j.l.j.j.l.l.l.T.<XT.l.j.j.i.q.h t i i t t `.BXxX-X!.A 4 < qX                  ",
"                    PXSXH.9 f 8.8.8.0.0...0.i.l.j.l.j.l.l.j.l.l.Y.>XU.f.f.p.w. .O.o.+.&.c.v.#XNX;X=X^.>.H 2 G.ZXLX              ",
"                    wXi g q...8.8.8...0.0.0.i.j.j.l.j.l.j.l.j.l.l.l.i...h i i t *.~.XX-XxXBXxX-XOXOXOX-X!.A 4 < qX              ",
"                    wXi h 0.0.8.8.8.0.0...0.i.j.l.j.l.j.g.f.f.f.p.i.w. .O.&.@.+.-.4. X=X;XNX;X=XOX XOX=X!.A 4 < qX              ",
"                    wXi g 0.....8.8.0.....0.i.l.j.l.l.l.i.X.8.8.t < 9 i C.-X*XXX7.A 7.XX*X-X*XXX(.~.(.OX7.A 4 < qX              ",
"                    wXi g q.8...8.8.8.0.0.0.i.j.l.l.g.f.t.h |  .V n m o.C.=X*X.X7.A 3. XOX=XXX^.^.~.(..X7.A 4 < qX              ",
"                    wXi g 0.8...8.8.8.8.0.0.i.j.j.l.i.8.u < 9 t 6.OX(.~.(.XXXXXX7.A >.~.(.XX7.A >.~.(..X7.A 4 < qX              ",
"                    wXi g 0.8...8.8.8.8...0.u.f.f.f.u. .V n m o.6.^.!.4.!.^.^.^.>.H :.4.^. X!.<.5.4.~. X3.A 4 < qX              ",
"                    wXi g q.8...8.8.8.8.8.8.0...8.8.h t 6..X(.~.>.A A A A A A A H N H A >.~.oXhXS.A >.~.>.A 4 < qX              ",
"                    wXu h 0.8...8.8.8.8.8.8.8.0.8.8.h t -. X^.4.5.%.%.$.=.P G 6 6 4 H <.5.4.}.hXV.6 $.4.$.7 C ! iX              ",
"                    wXi j 0.0...8.8.8.8.8.8.8.8.8...h t *.~.>.A S.hX&X{.].5XT . . . Q hXS.A S.hX^ . * A 4 < qX                  ",
"                    wXw f  .....8.8.q.e.q.8.8.8.8.8.h t #.4.:.A S.hX&X{.].tXT . . . Q hX[.<.[.hXP . * n L ! iX                  ",
"                    qX< 9 i h ..8.8.i.j.i.8.8...8...h t v A A A S.hX%X{.dXHX) . . . Q hXhXhXhXhXQ . @ < qX                      ",
"                    qX< 9 i h ....8.i.h.p.w.q...8.q.h t M $.<.1.@XjX&X|.dXHX' O O O ^ hXhXhXhXhXQ . @ < qX                      ",
"                    qX< 9 i j 0.8...i.h.j.h.i...8.8.h t m.{.gXnXnXnXlXhXcXHX3XU U U J.hXhXhXhXhXQ . @ < qX                      ",
"                    qX< 9 i g 0.8...i.h.j.j.p.w.w.w.| w *.{.gXnXnXnXzXjXmXHX2XU U U J.jXjXjXjXjXQ . > ! iX                      ",
"                    qX< 9 i h 8.8...i.h.j.j.j.j.j.j...< &.{.gXnXnXnXnXnXJXHX2XU U U 5XnXnXnXnXnXM.. 1X                          ",
"                    qX< 9 i j q.q. .u.f.g.j.j.j.j.h...< &.{.gXnXnXnXnXbXMXDXuX( ( ( eXnXnXnXnXnXM.. 1X                          ",
"                    qX< 9 i h 0.0.0.8...i.j.j.j.j.j...< =.|.&XnXnXnXnXnXnXnXnXnXnXnXnXnXnXnXnXnXM.. [                           ",
"                    qX< 9 i j 0.0.0.8.8.i.h.j.j.j.j.X.9 +.B.%XvXbXnXnXnXnXnXnXnXnXnXnXnXnXnXvXlX^ . [                           ",
"                    qX< 9 t h 0.0.0.0.0.i.h.j.j.j.h.i...{ t Z.hXlXnXnXnXnXnXnXnXnXnXnXnXnXnXgX{.G . [                           ",
"                    iX! B w f  .8.0.0.8.u.f.g.j.j.j.p.w. .d m.+XfXvXbXnXnXnXnXnXnXnXbXvXzXlX@X1.P Y tX                          ",
"                        qX< 9 t h 0.0.0.0.0.i.j.h.h.h.h.i...h i Z.gXlXnXnXnXnXnXnXnXlXhX&X{.G . [                               ",
"                        qX< 9 t h 8.8.0.0.8.i.j.h.h.g.f.u...f w b.+XfXsXsXsXsXsXsXsX#X).A.1.P Y tX                              ",
"                        qX< 9 i h ......8.8.i.l.j.j.i.....8.u < 3 N N N N N N N N N * . . . [                                   ",
"                        iX! B r f  . ...8.X.u.f.f.f.w. . . .f u e n m m m m n n n m 1 @ @ X _ SXPX                              ",
"                            qX< 9 t g q.....8.8.....h i t t w.j.w.t t t t t 9 < 9 t j 0.h t p s wX                              ",
"                        LXZXH.9 p }  . . .j  . . . .{ } } { y.j.y.{ h d d d 9 < 9 d h  .h p p s wX                              ",
"                        qX< a 0.i.l.t.i t t t t t d e.l.l.j.j.j.j.j.i.8.8.q.u < i 0.h u h q.g s wX                              ",
"                    PXZXH.9 g t.z.I.d.r.0.{ h d i w ..i.i.i.p.f.f.f.u.8... .r < B v.r.B B V r.D.kX                              ",
"                    qX< a 0.i.l.T.<X<X<XT.j.i.8.u < < < < < u 8.8.8.0...h t 9 < / uX0X1XE , 9X                                  ",
"                    qX< a 0.i.l.Y.>X>X>XU.f.w.g q 0 k x I W B h g g g g u w B W :XaXrX1XE , 9X                                  ",
"                    qX< a 0.i.l.l.l.j.l.i.8.u < k , E 1XpXKX:X< < < < < < < :XKXKXKXpX1XE , 9X                                  ",
"                    qX< a 0.i.l.l.l.g.f.t.g q 0 > , ) 3XaXKX7XI x 0 k x x I 6XGXGXFXrX) ) ) pX                                  ",
"                    qX< a 0.i.j.l.l.i.0.u < ; , , R ] uXVXKXVXuX[ T ) 1X0XuXuXuX0X1XE , 9X                                      ",
"                    qX8 a  .u.f.f.f.u. .r < > > c Y ] rXaXGXaXyX4X_ _ _ [ 3X3X3X] E T > 8X                                      ",
"                    wXi i i j q.q.8.h t 9 < 1 2 > , E 1X0XuX0X1XeXnXK.1 > , , , + . X & 6X                                      ",
"                    kXD.r.t d g j h p w 8 < 1 1 ; : T ` 4XeX4X` '.sXN.3 k > c F > X $ & 6X                                      ",
"                        wXi 9 < < < < < 1 1 2 1 # . - D Q./.Q.D D D H b v 2 &.E.m.b 3 & 6X                                      ",
"                        kXD.n.! x < < < 1 1 2 3 $ . 5 ;.3.!.,.J S Z 7 b v 3 c.E.m.@.v 1 G.CXLX                                  ",
"                                6X& 1 1 1 1 v b & . G {.V.N N N * . & b b b m.E.E.E.m.b 3 & 6X                                  ",
"                                6X& & 2 2 3 v b & . G |.C.=.N 3 $ . 1 @.o.b m.E.E.E.m.b 3 & 6X                                  ",
"                                6X& 1 1 v b b b & . Q hX&X{.G . . . C E.m.b m.E.E.E.m.b 3 & 6X                                  ",
"                                6X# & 1 3 v b b 1 X K ).A.1.6 . . X C E.v.v @.m.m.m.@.v 1 # 6X                                  ",
"                                [ . X & 1 1 v b v 1 # . . . . . # 1 &.E.&.2 2 2 2 2 0 & X . [                                   ",
"                                tXY > # & 1 3 4 3 1 $ . . . . . X & n v.n & * 1 1 1 & # > Y tX                                  ",
"                                    [ . o % % % % % % % o . . . . . . . . . o % % % o . [                                       ",
"                                    [ . o % = = l l l = + . . . : Y Y Y Y Y T R R R T Y tX                                      ",
"                                    [ . o % z P M.A.M.P = . . . [                                                               ",
"                                    tXY T R _ F._.]._.F.~ Y Y Y tX                                                              "
};
