/* XPM */
static char *_00a194041784347a01478d17e0fc601fbGnsuOM64mOkFmB[] = {
/* columns rows colors chars-per-pixel */
"64 64 52 1 ",
"  c None",
". c black",
"X c #291F14",
"o c #361312",
"O c #43091A",
"+ c #430A1A",
"@ c #440A1A",
"# c #440A1B",
"$ c #450A1B",
"% c #450B1B",
"& c #450C1D",
"* c #4E1C19",
"= c #6A0F29",
"- c #6B1029",
"; c #6A102A",
": c #6B102A",
"> c #6B112A",
", c #6B112B",
"< c #6C112A",
"1 c #6C122C",
"2 c #7C2E29",
"3 c #753E2D",
"4 c #78523D",
"5 c #8B183E",
"6 c #8C193E",
"7 c #8C193F",
"8 c #8D193F",
"9 c #8D1A3F",
"0 c #8D1A40",
"q c #8E1A40",
"w c #8E1B40",
"e c #8E1B41",
"r c #8F1C41",
"t c #D32B57",
"y c #D42C57",
"u c #D52C58",
"i c #D52D58",
"p c #D62D58",
"a c #D62D59",
"s c #D52E59",
"d c #D72E59",
"f c #D72E5A",
"g c #A17854",
"h c #CA6560",
"j c #D48C52",
"k c #F47991",
"l c #F47992",
"z c #F57992",
"x c #F57A92",
"c c #F57A93",
"v c #F67A93",
"b c #FFD9AD",
/* pixels */
"                                                                ",
"                        $$=<=1<==1=1<==1O$                      ",
"                        $$1=<==<=1=====1$$                      ",
"                    <=1=erdddddddddddduder<<::                  ",
"                    <<==e9ddddddddddddds9r====                  ",
"                  <=r9ddddvvvvvvvvvvvvvvdyr9rr<=                ",
"                  ==9rddddvvvvvvvvvvvvvvsu9rrr=<                ",
"                ==ddddvvlvvvvvvvvvvvvvvvvvvlsu9r::              ",
"                =<ddddvvvvvvvvvvvvvvvvvvvvvvyd99::              ",
"              11dylvvvvvvvvvvvvvvvvvvvvvvvvvvvyd99&&            ",
"              11ddvvvvvvvvvvvvvvvvvvvvvvvvvvvvdy99&&            ",
"            1199ydvvvvvvvvvvvvvvvvvvvvvvvvvvvvlv9e::&&          ",
"            1199ssvvvvvvvvvvvvvvvvvvvvvvvvvvvvlle9==&&          ",
"            &&99xxvvvvvvvvvvvvvvvvvvvvvvvvdysydy9e1=&&          ",
"            &&99xxvvvvvvvvvvvvvvvvvvvvvvvvssysysr9==&&          ",
"          11ssllxxvvvvvvvvvvvvvvvvvvvvvvvvuydydyuurr11&&        ",
"          11sslllxvvvvvvvvvvvvvvvvvvvvvvvvdyydysus9911&&        ",
"          11ssllxxvvvvvvvvvvvvvvvvvvvvvvvvys9999uyuurr&&        ",
"          11ssllxxxvvvvvvvvvvvvvvvvvvvvvvvdy9999yyuurr&&        ",
"          11ssllxxvvvvvvvvvvvvvvvvvvvvvvvvys999999ttrr&&        ",
"          11sskkxxvvvvvvvvvvvvvvvvvvvvvvvvsy999999tt9r&&        ",
"          &&syklxxxxvvvvvvvvvvvvvvvvvvvvvvyd999999ttrr&&        ",
"          &&ssllxxxxvvvvvvvvvvvvvvvvvvvvvvsy999999utrr$&        ",
"          &&ssttxxxxxxvvvvvvvvvvvvvvvvvvysyd99999955rr&&        ",
"          &&ssttxxxxxxvvvvvvvvvvvvvvvvvvdysy99997755rr&&        ",
"          &&11ttyysyxxxxvvvvvvvvvvvvxxdyysyd9999795e11&&        ",
"          &&11ttyyydvxlvvvvvxvxxvvvvxxysdydy9999779511&&        ",
"          &&11ttyysyyydyxxxxxxxxvxxxsydyysyy9999779911&&        ",
"          &&11ttyyysydysxxxxxxxxxxxvysydyydd9999757711&&        ",
"          &&11ss99sysydydydyxxxxxvyydysydyyy9999779911&&        ",
"          &&11ss55yyysysydydxxxkxxysydyddyup997977rr11&&        ",
"          &&11ee55yydydydydyydssyddysysyyu99997779rr11&&        ",
"          &&110r59tuyyyyydydyyssdysssstypu99999859rr11&&        ",
"            &&r09955yyytdydyyyssydsdssyy99787755991<&&          ",
"            &&009e55yyuussydyyssdydydyyy88877655rr11&&          ",
"            &&11ee99997795yydysd9999999988777566rr11&&          ",
"            &&11ee99999799stddyd9999999977777777rr11&&          ",
"              &&<=7999775999r999r9r999r9e78r9e7q=<&$            ",
"              &&==77999959990r009r9r9r9r9e9r99ee<=&$            ",
"            &&99ds<===<:95990009q8r9r9r99r=<1<11ddr9&&          ",
"            &&99dd=1==1=0000eeeeqrrree0e0e,:=11=us99&&          ",
"            &&99eefffsdd,,=,,:,,====,,=,=,ssduffee99&&          ",
"            &&09qquusuuf,,,=,,,,1=11,,,,1=usuufd9re9&&          ",
"          &&::sylleezzvvccccccccvvvvccccufufeeeefsss11&&        ",
"          &&:<ydll99zlllccccccvvvvccccccdufueereufuu11$&        ",
"          %O<<yyvlllllllccccccvvffffccffufuduuufddfs,=&&        ",
"          O$--yylvllllllcccvccvvffffccfffuduuuuudduf1=&&        ",
"          OO::99ddllydllckcvusvvsuvvccfuususuuufddr9=<&&        ",
"          &O::e9yslkuullllllfulludllllpfyuysuussfdee::&&        ",
"          ..$#=:==99uulllldduuuudslzlzppddsyus99=1<=##          ",
"          ..$O==::59uyllvvyduuuuudzzlldpduyyuu99::<<$#          ",
"            ..OO&&OOOO::9999ppufdupppdr999-:O$%%&$#$..          ",
"            ..OO&&OOOO::9r9eupfuusudyy999r==O+%%%%$O..          ",
"                  oo**$$$$$$$$$$$$$$$$$$$$$$**oo....            ",
"                  oo**$$$$$$$$$$#$$O$$$$$$$$**oo....            ",
"                  oo**22hh22hhhh22****2222****oo                ",
"                  oo**22hh22hhhh22****2222****oo                ",
"                    oooooooooooooo****oooooooo                  ",
"                    oooooooooooooo****oooooooo                  ",
"                      33jj..gggg4444......                      ",
"                      33jj..gggg4444......                      ",
"                      ..bb..44XXXX44....                        ",
"                      ..bb..44XXXX44....                        ",
"                                                                "
};
