/* XPM */
static char *abf341865e9a434eb8dd99014bd86e16VE0dRpBqFP9otewD[] = {
/* columns rows colors chars-per-pixel */
"64 64 254 2 ",
"   c None",
".  c black",
"X  c #160A08",
"o  c #1E140D",
"O  c #181A18",
"+  c #280E0D",
"@  c #360916",
"#  c #291F14",
"$  c #381413",
"%  c #3B2015",
"&  c #3C3110",
"*  c #142236",
"=  c gray16",
"-  c #3C2024",
";  c #392B25",
":  c #3D3226",
">  c #303430",
",  c #3F3938",
"<  c #450B1C",
"1  c #4C1B19",
"2  c #521B1D",
"3  c #5D241E",
"4  c #723A1F",
"5  c #550E23",
"6  c #5F0E25",
"7  c #621128",
"8  c #6B102A",
"9  c #6C112B",
"0  c #69132D",
"q  c #6C122C",
"w  c #73122F",
"e  c #6A1430",
"r  c #6D1A31",
"t  c #741430",
"y  c #7C1535",
"u  c #741A33",
"i  c #7D1838",
"p  c #4B2323",
"a  c #552823",
"s  c #423529",
"d  c #523721",
"f  c #4A2C34",
"g  c #592F3A",
"h  c #652622",
"j  c #712C26",
"k  c #70272C",
"l  c #77242F",
"z  c #7C2E29",
"x  c #67322D",
"c  c #753E2C",
"v  c #5A4917",
"b  c #77461B",
"n  c #78611F",
"m  c #6B482B",
"M  c #764324",
"N  c #7C5528",
"B  c #654736",
"V  c #7B4738",
"C  c #78523D",
"Z  c #6C2D40",
"A  c #7C3147",
"S  c #28446C",
"D  c gray25",
"F  c #444845",
"G  c #4F4B4B",
"H  c #5F424C",
"J  c #444E5D",
"K  c #5B5E5D",
"L  c #674F4D",
"P  c #7D4D48",
"I  c #625C43",
"U  c #765A43",
"Y  c #744855",
"T  c #7D505F",
"R  c #7A7251",
"E  c #735B61",
"W  c #676565",
"Q  c #7E616B",
"!  c #7A716A",
"~  c #6B7170",
"^  c gray50",
"/  c #811837",
"(  c #851839",
")  c #861A3D",
"_  c #89193A",
"`  c #8D1C3A",
"'  c #89193D",
"]  c #8C193F",
"[  c #971E3F",
"{  c #803831",
"}  c #903C37",
"|  c #835022",
" . c #8A5921",
".. c #98522F",
"X. c #8D4E34",
"o. c #8C413D",
"O. c #924136",
"+. c #925E32",
"@. c #A65B3E",
"#. c #926126",
"$. c #9F6A27",
"%. c #946628",
"&. c #976829",
"*. c #8B7125",
"=. c #8A613F",
"-. c #946339",
";. c #A06B28",
":. c #AA782D",
">. c #B47C2F",
",. c #A26F32",
"<. c #A5653D",
"1. c #A86B39",
"2. c #AA7B33",
"3. c #B07031",
"4. c #8E1B40",
"5. c #8F1C41",
"6. c #961C43",
"7. c #A11F42",
"8. c #A01F46",
"9. c #8B314D",
"0. c #AD2247",
"q. c #A42748",
"w. c #A82249",
"e. c #AA2A4C",
"r. c #B3244D",
"t. c #BB264F",
"y. c #BC2750",
"u. c #C52953",
"i. c #CE2B56",
"p. c #D62D58",
"a. c #D72E59",
"s. c #D72F5A",
"d. c #C03057",
"f. c #DD3F67",
"g. c #9D4E4B",
"h. c #825C43",
"j. c #9A5E4B",
"k. c #834C5D",
"l. c #A24B43",
"z. c #AC524D",
"x. c #B65752",
"c. c #87664D",
"v. c #8C7254",
"b. c #B36C45",
"n. c #AD7845",
"m. c #B47345",
"M. c #AB6258",
"N. c #A57853",
"B. c #B17C52",
"V. c #914D60",
"C. c #B24660",
"Z. c #916C74",
"A. c #A76964",
"S. c #A66D7E",
"D. c #C54B6A",
"F. c #DE4369",
"G. c #E34B6F",
"H. c #E34B70",
"J. c #E75476",
"K. c #EA5E7D",
"L. c #CA6560",
"P. c #BA8C35",
"I. c #C78F34",
"U. c #C9993A",
"Y. c #D39F3E",
"T. c #D3A03E",
"R. c #B88652",
"E. c #B18564",
"W. c #B88768",
"Q. c #B98C6E",
"!. c #A89566",
"~. c #BC9765",
"^. c #B68573",
"/. c #A8937D",
"(. c #BA977F",
"). c #B3A574",
"_. c #C28841",
"`. c #C08A5D",
"'. c #D48C52",
"]. c #DA965F",
"[. c #D8A742",
"{. c #D9A547",
"}. c #DAAC45",
"|. c #DDAE47",
" X c #D8A34B",
".X c #DFB048",
"XX c #E6B84B",
"oX c #CD936B",
"OX c #DBA373",
"+X c #E1A46F",
"@X c #EEC24F",
"#X c #F3CA58",
"$X c #FCD356",
"%X c #FCDD73",
"&X c #536886",
"*X c #8F7A85",
"=X c #EE6785",
"-X c #F2718C",
";X c #F67A93",
":X c #7D8383",
">X c #8A8B8A",
",X c #958E8A",
"<X c #909495",
"1X c #929899",
"2X c #A2858D",
"3X c #A39384",
"4X c #B58894",
"5X c #BAA699",
"6X c #BEAC9E",
"7X c #9EA1A1",
"8X c #A3ABAF",
"9X c #B9A4AA",
"0X c #ACADB3",
"qX c #B6AFB7",
"wX c #ACB5B7",
"eX c #B4B4B4",
"rX c #B3B4BB",
"tX c #B1BABE",
"yX c gray75",
"uX c #C9B49D",
"iX c #E2AB86",
"pX c #EBB385",
"aX c #E7B88C",
"sX c #EFBC8B",
"dX c #F0BD8F",
"fX c #CBB7A6",
"gX c #D0BBA9",
"hX c #C8A6B0",
"jX c #ECCE83",
"kX c #F5C698",
"lX c #FEE689",
"zX c #DFC3A0",
"xX c #D5C4B6",
"cX c #F9CEA1",
"vX c #FDD4A8",
"bX c #FFD9AD",
"nX c #EFD7BB",
"mX c #FFF6B3",
"MX c #B3BCC0",
"NX c #BFC9CD",
"BX c #C6C2C1",
"VX c #CDC4C4",
"CX c #CCC8C7",
"ZX c #CBCCCB",
"AX c #D1C2C7",
"SX c #D9CBC0",
"DX c #DAC4CB",
"FX c #DDD3C8",
"GX c #C3CDD1",
"HX c #CBD5DA",
"JX c LightGray",
"KX c #DFDFDF",
"LX c #DBE6EB",
"PX c #EAE1E3",
/* pixels */
"                                                                                                                                ",
"                                          PX4X4X4X4X4X4X4X4X4X4X4X4X2X2X2X2X2X9X                                                ",
"                                          DX8 8 8 8 8 8 8 8 8 8 8 6 < < < < < Y                                                 ",
"                                  PX4X4X4XS.y ( 7.7.7.7.7.7.7.[ y y 0 0 0 7 5 Z 4X4X2X9X                                        ",
"                                  DX8 8 0 t 4.8.a.a.a.a.a.a.a.u.4.4.4.4.4.( 9 8 8 6 < Y                                         ",
"                              PX4XS.y ( 7.e.D.D.J.J.J.J.J.J.J.F.r.r.r.w.4.' y y y y 0 A 4XhX                                    ",
"                              DX8 t 4.q.a.F.;X;X;X;X;X;X;X;X;X=Xa.a.a.u.4.4.4.4.4.4.4.( 8 V.                                    ",
"                          PX4XS.y ) r.y.J.K.;X;X;X;X;X;X;X;X;X-XJ.G.a.i.r.w.4.4.4.4.4.' y 9.4XhX                                ",
"                          DX8 t 5.8.p.F.;X;X;X;X;X;X;X;X;X;X;X;X;X=Xa.a.a.u.4.4.4.4.4.4.4.( 8 V.                                ",
"                      PX4XS.y _ r.u.J.K.;X;X;X;X;X;X;X;X;X;X;X;X;X-XJ.G.a.u.4.4.4.4.4.4.4.' y 9.4XhX                            ",
"                      DXq t ] 8.p.F.;X;X;X;X;X;X;X;X;X;X;X;X;X;X;X;X;X=Xa.u.4.4.4.4.4.4.4.4.] ( q V.                            ",
"                  PX2XZ.9 w y ( 7.e.D.D.D.D.J.K.;X;X;X;X;X;X;X;X;X-XJ.G.a.u.4.4.4.4.4.4.4.4.4.' y 9.4XhX                        ",
"                  AX< 5 8 8 8 8 9 t 4.4.] 7.a.F.;X;X;X;X;X;X;X;X;X=Xa.a.a.u.4.4.4.4.4.4.4.4.4.4.] ( q V.                        ",
"                  AX< 5 j { m.m.^.A.y y y / q.e.D.D.J.J.J.K.;X-XJ.G.a.a.a.i.r.r.r.w.4.4.4.4.4.4.] / 5 k.                        ",
"                  AX< 2 b &.$X%XmXzX9 9 9 9 9 w 6.6.a.a.a.F.;X=Xa.a.a.a.a.a.a.a.a.u.4.4.4.4.4.4.] y < Y                         ",
"              PX2XZ.3 M P.U.@X#XlXjX^.E.m.1...O.y ( 7.w.r.d.J.G.a.a.a.a.a.a.a.a.a.u.4.4.4.4.4.4.] ( e A 4XhX                    ",
"              AX< 2 b &.$X#X.XXX$X%XmXmX$X@XI.3.9 9 9 t 4.8.a.a.a.a.a.a.a.a.a.a.s.u.4.4.] 5.] 5.] ] 5.) q V.                    ",
"              AX< 2 b %.@XXXY.[.@X#XlX%X@X}.;.$.@.<.m.@.y / ` [ r.r.r.t.a.a.a.a.s.u.4.4.5.] 5.] ] ] 5.) q V.                    ",
"              AX< 2 b #.|.[.I.U..XXX$X#X.XU.b #..XXX$X X9 7 < 5 5.] 5.8.a.a.a.a.s.u.4.4.] 5.] 5.] ] 5.) q V.                    ",
"              AX< 2 b #.|.[.I.P.>.P.@XXXT.P.b #..XXX@X{.....+.X.y y 0 i r.t.a.a.s.u.4.5.6.` 5.] ] ] 5.) q V.                    ",
"              AX< 2 b #.|.[.I.>.b #..X[.I.>.b #..X.X.X[.I.U..X_.9 7 < 5 5.8.a.a.p.u.] 4.5.5.5.5.] ] 5.) q V.                    ",
"              AX< 2 b #.Y.I.$.,.B.R.T.I.;.#.M | 2.2.2.:.;.;.2.,.....+.X.y _ r.r.r.q.4.4.` 5.5.5.] ] 5.) q V.                    ",
"              AX< 2 b  .I.>.b -.pX+XI.>.b b c c b b b b b b b  .I.U.XXI.9 w 4.4.4.4.4.4.5.] 6.] ] ] 5.) q V.                    ",
"              PX2XZ.3 4 ;. .% m pXOX$.,.B.-.% % % d v.c.1.1.B.n.$.,.[.3.9 w 4.4.4.4.4.4.] ] ] 5.] ] 5.) q V.                    ",
"                  AX< 2 b d . ; pXoXb -.pXE.. . . = <X3X'.].pXoXb  .I.3.8 w ' 4.4.4.4.4.4.4.5.] ] ] 5.) q V.                    ",
"                  PX2XZ.3 1 . ; pXOXB.`.pXE.. . . = eX6X'.].pXoXb | $...8 w 4.4.4.4.4.6.r.w.] 5.] ' i t 5 k.                    ",
"                      AX< @ . ; pXpXpXpXpXE.. . . > JXxX'.].pXoXb b b 4 8 t 4.4.] ] ] 8.a.u.] ] ] ( q 7 < Y                     ",
"                      AX< @ . ; pXpXpXpXpXQ.* * * J JXxX+X+XkXaX~.R.1...8 t 4.4.] 6.r.t.p.u.6.' 4.( q 7 < Y                     ",
"                      AX< @ . ; pXpXpXpXpX(.S S S &XJXSXpXdXbXbXbXkX'.b.8 w ] 6.' 8.a.p.a.u.] ] 5.) q 7 < Y                     ",
"                      PX2XQ . : kXkXkXkXkX5XS S S &XJXFXkXcXbXbXbXkX'.b.5 0 r.r.r.t.a.p.p.u.] ] 5.) q 7 < Y                     ",
"                          yX. s bXbXbXbXbXuXS S S &XJXFXbXbXbXbXbXkX'.b.< 0 p.p.p.p.p.p.p.u.] ] 5.) q 7 < Y                     ",
"                          yX. s bXbXbXbXbXzX,X,X,X7XnXnXbXbXbXbXbXkX'.b.< 7 p.p.p.p.p.i.r.w.4.4.5.) q 7 < Y                     ",
"                          yX. s bXbXbXbXbXbXbXbXbXbXbXbXbXbXbXbXbXkX'.b.< 0 a.p.p.p.p.u.' 4.5.5.5.) q 7 < Y                     ",
"                          yX. ; pXsXbXbXbXbXbXbXbXbXbXbXbXbXbXvXkXiXl.} 0 / p.p.p.p.p.u.4.4.5.5.5.) q 7 < Y                     ",
"                          yX. % '.+XbXbXbXbXbXbXbXbXbXbXbXbXbXcXpXoX8 t ' q.p.p.p.p.a.u.4.4.4.4.5.) q 7 < Y                     ",
"                          KX^ ! m =.pXpXkXcXbXbXbXbXbXbXbXvXkXiXM.g.y _ r.t.p.p.a.i.r.w.4.6.5.) y t 5 Z 2X9X                    ",
"                              yX. % '.].pXdXbXbXbXbXbXbXbXcXpXoX9 w ] 8.p.p.p.p.a.u.5.5.5.5.5.( 0 6 < Y                         ",
"                              KX^ ! m m U c.Q.Q.Q.Q.Q.Q.Q.W.B.j.5 7 ] 6.r.t.p.p.a.u.5.5.5.] ] ( 9 7 < Y                         ",
"                                  yX. . . o c c c c c c c c c x < 5 ] 4.] 8.p.p.s.u.5.5.] ] ] ( 9 7 < Y                         ",
"                              PX4XZ.@ @ < 5 k k 3 h k k k k k l ` _ y y y _ r.r.r.q.5.` ] ] y w 5 Z 2X9X                        ",
"                              DXr r 9 t 5.) q 6 < 5 9 9 8 8 8 ( p.t.8 8 9 w ] [ ' 5.4.' 6.) 8 7 < Y                             ",
"                              DXr u y y i y y q < 5 y y y ( 7.0.p.u.7.7.7.6.y y y y y y i ' 7.6.e A 2X9X                        ",
"                              DXr u 4.( 9 t 4.i < 5 4.4.4.8.a.p.a.a.p.p.a.y.q q 8 8 8 8 0 / s.u.6.y < Y                         ",
"                              PX4XS.g Z Y T Z.k.< 5 y / 4.6.r.r.r.8.` ` ] / 5 7 y ( 7.q.C.D.J.F.r.8.e A 2X9X                    ",
"                                  ZX> F :X>X8X>X< 5 8 t 4.4.4.4.6.y < < < < < 5 4.8.p.F.;X;X;X=Xs.u.5.i < Y                     ",
"                                  ZX> F :X<XNXrX*XQ 5 6 0 0 0 0 w g >XZ.H H - - q y r.u.J.J.J.H.s.u.5.i < Y                     ",
"                                  ZX> F :X1XLXLXLXqX< < < < < < < Z LXGX:X~ > ; < 5 4.8.a.s.s.s.s.u.5.i < Y                     ",
"                                  PX1X>XK ~ wXtXNX0XE E H H f g E *XLXHX<X:XD , - - 0 y r.y.s.s.s.u.5.i < Y                     ",
"                                      ZX> F :X>X8X8X8X7X:X~ G W 8XtXLXHX8X<XG F > ; < 5 5.8.s.s.s.u.4.i < Y                     ",
"                                      CX- ; D G ~ ~ ~ W L E /.3X1X7XNXMX1X:XD , ; - < 5 y _ r.r.r.q.i t 5 k.                    ",
"                                      VX$ + . X > > > ; 1 C bXzX:X>X8X7X:X~ > ; 2 1 < < 0 w 5.5.4.) q q q V.                    ",
"                                      VX$ $ $ p P B ; p h V ~.!.R v.).!.R I O # 1 1 1 < 6 5 e e e e q A 4XhX                    ",
"                                      VX$ 1 z } L.z.1 3 z c n n n *.U.P.n v . X 1 1 1 1 < < < < < 5 q V.                        ",
"                                  PX,XZ.3 h l.z.L.x.h h z j & d N N ,.,.2.N . X h 3 1 1 < 1 @ g 2X2X4XhX                        ",
"                                  VX$ 1 z } L.L.L.x.z z z 3 . X c M M X.'.<.. X z j 1 1 1 1 $ L                                 ",
"                                  VX$ 1 z } L.L.L.x.z { l.{ . X 1 d j.n.+XN.. + z j h 3 1 1 $ L                                 ",
"                                  VX$ 1 z } L.L.L.x.z } L.g.. . . % '.].pXE.. X z z z j 1 1 $ L                                 ",
"                                  BXX + 3 h o.o.o.{ h { L.g.+ X . o m m U B + $ z z h 3 $ $ X G                                 ",
"                                  yX. X $ $ 1 1 1 1 1 j L.z.2 $ . . . . . X 1 3 z j 1 1 $ + . D                                 ",
"                                  KX^ W X + % % % $ + $ x a + X . . . . o o % % a p % $ X ; ^ 7X                                ",
"                                      yX. X # # # o . . . . . . . . . X # # # # # # # o . D                                     ",
"                                      KX^ :X,X,X,X>X^ ^ ^ ^ ^ K . . . X d d B B d s # o . D                                     ",
"                                                              yX. . . o C c.N.v.C B # o . D                                     ",
"                                                              KX^ ^ ^ >X5X6XgXfX6X5X>X>X*X7X                                    "
};
